<svg width="30" height="29" viewBox="0 0 30 29" fill="none" xmlns="http://www.w3.org/2000/svg">
<g clip-path="url(#clip0_4_65)">
<path fill-rule="evenodd" clip-rule="evenodd" d="M10.2859 0.365055C8.59365 0.365055 6.97073 0.99905 5.77411 2.12757L0 7.57303V10.0656C0 11.8266 0.80208 13.4109 2.08051 14.5114C0.80208 15.6118 0 17.1961 0 18.9572V21.4497L5.77411 26.8952C6.97073 28.0238 8.59365 28.6577 10.2859 28.6577C12.1532 28.6577 13.8331 27.9013 15 26.6956C16.1668 27.9013 17.8468 28.6577 19.7141 28.6577C21.4064 28.6577 23.0293 28.0238 24.2259 26.8952L30 21.4497V18.9572C30 17.1961 29.198 15.6118 27.9195 14.5114C29.198 13.4109 30 11.8266 30 10.0656V7.57303L24.2259 2.12757C23.0293 0.99905 21.4064 0.365055 19.7141 0.365055C17.8468 0.365055 16.1668 1.12149 15 2.32716C13.8331 1.12149 12.1532 0.365055 10.2859 0.365055ZM19.3191 14.5114C19.2472 14.4495 19.1766 14.3859 19.1075 14.3207L15 10.447L10.8926 14.3207C10.8234 14.3859 10.7528 14.4495 10.6809 14.5114C10.7528 14.5733 10.8234 14.6369 10.8926 14.7021L15 18.5758L19.1075 14.7021C19.1766 14.6369 19.2472 14.5733 19.3191 14.5114ZM16.6667 21.4497V22.6402C16.6667 24.2274 18.031 25.5141 19.7141 25.5141C20.5223 25.5141 21.2974 25.2113 21.8689 24.6723L26.6667 20.1476V18.9572C26.6667 17.3699 25.3023 16.0832 23.6193 16.0832C22.8111 16.0832 22.036 16.386 21.4645 16.925L16.6667 21.4497ZM13.3333 21.4497L8.53553 16.925C7.96403 16.386 7.18893 16.0832 6.38071 16.0832C4.69769 16.0832 3.33333 17.3699 3.33333 18.9572V20.1476L8.13113 24.6723C8.70263 25.2113 9.47775 25.5141 10.2859 25.5141C11.9689 25.5141 13.3333 24.2274 13.3333 22.6402V21.4497ZM13.3333 6.38264V7.57303L8.53553 12.0978C7.96403 12.6368 7.18893 12.9396 6.38071 12.9396C4.69769 12.9396 3.33333 11.6528 3.33333 10.0656V8.8752L8.13113 4.35045C8.70263 3.81148 9.47775 3.50869 10.2859 3.50869C11.9689 3.50869 13.3333 4.7954 13.3333 6.38264ZM21.4645 12.0978L16.6667 7.57303V6.38264C16.6667 4.7954 18.031 3.50869 19.7141 3.50869C20.5223 3.50869 21.2974 3.81148 21.8689 4.35045L26.6667 8.8752V10.0656C26.6667 11.6528 25.3023 12.9396 23.6193 12.9396C22.8111 12.9396 22.036 12.6368 21.4645 12.0978Z" fill="#040400"/>
</g>
<defs>
<clipPath id="clip0_4_65">
<rect width="30" height="29" fill="white"/>
</clipPath>
</defs>
</svg>
