<svg width="318" height="216" viewBox="0 0 318 216" fill="none" xmlns="http://www.w3.org/2000/svg">
<rect x="0.5" width="317" height="216" rx="98" fill="#D9D9D9"/>
<path d="M141.097 102.653C141.097 99.3771 140.444 96.9033 139.136 95.2315C137.828 93.5463 135.88 92.7037 133.292 92.7037C130.703 92.7037 128.742 93.5463 127.407 95.2315C126.072 96.9168 125.405 99.3974 125.405 102.673C125.405 105.936 126.065 108.417 127.387 110.115C128.721 111.8 130.683 112.643 133.271 112.643C138.489 112.643 141.097 109.313 141.097 102.653ZM142.473 92.5824C144.643 94.9687 145.728 98.3256 145.728 102.653C145.728 106.981 144.643 110.351 142.473 112.764C140.315 115.164 137.235 116.364 133.231 116.364C129.24 116.364 126.167 115.171 124.009 112.785C121.866 110.398 120.794 107.008 120.794 102.613C120.794 98.2177 121.873 94.8473 124.03 92.5015C126.187 90.1557 129.254 88.9828 133.231 88.9828C137.221 88.9828 140.302 90.1827 142.473 92.5824ZM167.946 89.3873H172.294V106.617C172.321 109.583 171.377 111.962 169.463 113.755C167.548 115.535 164.946 116.404 161.657 116.364C158.354 116.364 155.786 115.494 153.952 113.755C152.119 112.003 151.202 109.596 151.202 106.536V89.3873H155.57V106.233C155.57 108.417 156.075 110.034 157.087 111.086C158.111 112.124 159.682 112.643 161.798 112.643C165.897 112.643 167.946 110.493 167.946 106.192V89.3873ZM183.449 105.363V116H179.101V89.3873H186.603C190.028 89.3873 192.569 90.0276 194.227 91.3084C195.885 92.5891 196.714 94.5372 196.714 97.1527C196.714 100.456 194.989 102.815 191.538 104.231L199.06 116H194.106L187.736 105.363H183.449ZM183.449 93.0677V101.763H186.462C188.457 101.763 189.913 101.399 190.83 100.671C191.76 99.9299 192.225 98.8109 192.225 97.3145C192.225 95.818 191.74 94.7395 190.769 94.0789C189.812 93.4048 188.329 93.0677 186.32 93.0677H183.449Z" fill="black"/>
</svg>
