<svg width="317" height="216" viewBox="0 0 317 216" fill="none" xmlns="http://www.w3.org/2000/svg">
<rect width="317" height="216" rx="98" fill="#ECF96E"/>
<path d="M169.664 78.4196L158.566 121H150.995L143.78 95.6006C143.499 94.6299 143.1 93.0337 142.582 90.8119C142.108 88.5686 141.827 87.1234 141.741 86.4762C141.569 87.5548 141.277 89.0755 140.868 91.0384C140.458 92.9798 140.069 94.5436 139.703 95.73L132.682 121H125.11L119.61 99.6775L114.012 78.4196H121.098L127.181 103.237C128.152 107.206 128.831 110.722 129.219 113.785C129.737 110.01 130.449 106.515 131.355 103.301L138.279 78.4196H145.203L152.289 103.398C153.023 105.901 153.745 109.363 154.457 113.785C154.759 110.894 155.46 107.357 156.56 103.172L162.611 78.4196H169.664ZM199.734 115.079V121H175.661V78.4196H199.734V84.3084H182.618V95.8918H198.666V101.716H182.618V115.079H199.734Z" fill="black"/>
</svg>
